<?xml version="1.0" encoding="UTF-8" standalone="no"?>
<!DOCTYPE svg PUBLIC "-//W3C//DTD SVG 1.1//EN"
 "http://www.w3.org/Graphics/SVG/1.1/DTD/svg11.dtd">
<!-- Generated by graphviz version 2.43.0 (0)
 -->
<!-- Title: %3 Pages: 1 -->
<svg width="275pt" height="290pt"
 viewBox="0.00 0.00 274.98 290.09" xmlns="http://www.w3.org/2000/svg" xmlns:xlink="http://www.w3.org/1999/xlink">
<g id="graph0" class="graph" transform="scale(1 1) rotate(0) translate(4 286.09)">
<title>%3</title>
<polygon fill="white" stroke="transparent" points="-4,4 -4,-286.09 270.98,-286.09 270.98,4 -4,4"/>
<!-- A -->
<g id="node1" class="node">
<title>A</title>
<polygon fill="aqua" stroke="black" points="102.67,-187.8 63.37,-187.8 51.22,-225.18 39.08,-187.8 -0.22,-187.8 31.57,-164.7 19.43,-127.32 51.22,-150.42 83.02,-127.32 70.87,-164.7 102.67,-187.8"/>
<text text-anchor="middle" x="51.22" y="-172.55" font-family="Times,serif" font-size="14.00">A</text>
</g>
<!-- B -->
<g id="node2" class="node">
<title>B</title>
<polygon fill="aqua" stroke="black" points="178.02,-190.97 138.72,-190.97 126.58,-228.35 114.43,-190.97 75.13,-190.97 106.93,-167.87 94.78,-130.49 126.58,-153.59 158.37,-130.49 146.23,-167.87 178.02,-190.97"/>
<text text-anchor="middle" x="126.58" y="-175.72" font-family="Times,serif" font-size="14.00">B</text>
</g>
<!-- A&#45;&#45;B -->
<g id="edge1" class="edge">
<title>A&#45;&#45;B</title>
<path fill="none" stroke="red" d="M88.9,-177.83C90.22,-177.89 91.55,-177.95 92.87,-178"/>
<text text-anchor="middle" x="84.38" y="-183.92" font-family="Times,serif" font-size="20.00">1</text>
</g>
<!-- C -->
<g id="node3" class="node">
<title>C</title>
<polygon fill="aqua" stroke="black" points="138.67,-123.4 99.37,-123.4 87.22,-160.78 75.08,-123.4 35.78,-123.4 67.57,-100.3 55.43,-62.92 87.22,-86.02 119.02,-62.92 106.87,-100.3 138.67,-123.4"/>
<text text-anchor="middle" x="87.22" y="-108.15" font-family="Times,serif" font-size="14.00">C</text>
</g>
<!-- A&#45;&#45;C -->
<g id="edge2" class="edge">
<title>A&#45;&#45;C</title>
<path fill="none" stroke="red" d="M75.44,-132.94C75.99,-131.93 76.55,-130.95 77.08,-129.99"/>
<text text-anchor="middle" x="69.76" y="-137.46" font-family="Times,serif" font-size="20.00">4</text>
</g>
<!-- B&#45;&#45;C -->
<g id="edge6" class="edge">
<title>B&#45;&#45;C</title>
<path fill="none" stroke="red" d="M100.55,-134.73C99.46,-132.86 98.4,-131.04 97.39,-129.3"/>
<text text-anchor="middle" x="92.47" y="-138.02" font-family="Times,serif" font-size="20.00">2</text>
</g>
<!-- G -->
<g id="node4" class="node">
<title>G</title>
<polygon fill="aqua" stroke="black" points="254.53,-175.19 215.23,-175.19 203.08,-212.57 190.94,-175.19 151.64,-175.19 183.43,-152.09 171.29,-114.71 203.08,-137.81 234.88,-114.71 222.73,-152.09 254.53,-175.19"/>
<text text-anchor="middle" x="203.08" y="-159.94" font-family="Times,serif" font-size="14.00">G</text>
</g>
<!-- B&#45;&#45;G -->
<g id="edge3" class="edge">
<title>B&#45;&#45;G</title>
<path fill="none" stroke="red" d="M154.2,-173.72C154.28,-173.7 154.37,-173.69 154.46,-173.67"/>
<text text-anchor="middle" x="147.83" y="-179.69" font-family="Times,serif" font-size="20.00">4</text>
</g>
<!-- H -->
<g id="node5" class="node">
<title>H</title>
<polygon fill="aqua" stroke="black" points="230.88,-244.93 191.58,-244.93 179.43,-282.31 167.29,-244.93 127.99,-244.93 159.78,-221.82 147.64,-184.44 179.43,-207.55 211.23,-184.44 199.08,-221.82 230.88,-244.93"/>
<text text-anchor="middle" x="179.43" y="-229.68" font-family="Times,serif" font-size="14.00">H</text>
</g>
<!-- B&#45;&#45;H -->
<g id="edge4" class="edge">
<title>B&#45;&#45;H</title>
<path fill="none" stroke="red" d="M138.57,-191.66C143.57,-196.76 149.55,-202.87 155.38,-208.83"/>
<text text-anchor="middle" x="140.48" y="-206.24" font-family="Times,serif" font-size="20.00">2</text>
</g>
<!-- D -->
<g id="node6" class="node">
<title>D</title>
<polygon fill="aqua" stroke="black" points="207.93,-123.87 168.63,-123.87 156.48,-161.25 144.34,-123.87 105.04,-123.87 136.83,-100.77 124.69,-63.39 156.48,-86.49 188.28,-63.39 176.13,-100.77 207.93,-123.87"/>
<text text-anchor="middle" x="156.48" y="-108.62" font-family="Times,serif" font-size="14.00">D</text>
</g>
<!-- B&#45;&#45;D -->
<g id="edge5" class="edge">
<title>B&#45;&#45;D</title>
<path fill="none" stroke="red" d="M143.63,-141.16C144.89,-138.34 146.13,-135.56 147.31,-132.91"/>
<text text-anchor="middle" x="145.47" y="-121.04" font-family="Times,serif" font-size="20.00">9</text>
</g>
<!-- C&#45;&#45;D -->
<g id="edge7" class="edge">
<title>C&#45;&#45;D</title>
<path fill="none" stroke="red" d="M123.07,-112.09C123.2,-112.09 123.33,-112.09 123.47,-112.09"/>
<text text-anchor="middle" x="116.77" y="-118.09" font-family="Times,serif" font-size="20.00">1</text>
</g>
<!-- E -->
<g id="node7" class="node">
<title>E</title>
<polygon fill="aqua" stroke="black" points="190.49,-60.27 151.19,-60.27 139.05,-97.65 126.9,-60.27 87.6,-60.27 119.4,-37.16 107.25,0.22 139.05,-22.89 170.84,0.22 158.7,-37.16 190.49,-60.27"/>
<text text-anchor="middle" x="139.05" y="-45.01" font-family="Times,serif" font-size="14.00">E</text>
</g>
<!-- C&#45;&#45;E -->
<g id="edge8" class="edge">
<title>C&#45;&#45;E</title>
<path fill="none" stroke="red" d="M113.44,-79.91C118.46,-73.8 123.46,-67.7 127.7,-62.54"/>
<text text-anchor="middle" x="114.07" y="-55.22" font-family="Times,serif" font-size="20.00">3</text>
</g>
<!-- G&#45;&#45;H -->
<g id="edge14" class="edge">
<title>G&#45;&#45;H</title>
<path fill="none" stroke="red" d="M194.94,-187.64C193.71,-191.26 192.43,-195.06 191.14,-198.85"/>
<text text-anchor="middle" x="206.04" y="-177.25" font-family="Times,serif" font-size="20.00">14</text>
</g>
<!-- D&#45;&#45;G -->
<g id="edge11" class="edge">
<title>D&#45;&#45;G</title>
<path fill="none" stroke="red" d="M168.24,-125.27C171.37,-128.71 174.87,-132.57 178.41,-136.47"/>
<text text-anchor="middle" x="170.08" y="-114.87" font-family="Times,serif" font-size="20.00">1</text>
</g>
<!-- D&#45;&#45;E -->
<g id="edge9" class="edge">
<title>D&#45;&#45;E</title>
<path fill="none" stroke="red" d="M147.66,-80.14C147.22,-78.54 146.78,-76.94 146.35,-75.36"/>
<text text-anchor="middle" x="153.51" y="-61.75" font-family="Times,serif" font-size="20.00">1</text>
</g>
<!-- F -->
<g id="node8" class="node">
<title>F</title>
<polygon fill="aqua" stroke="black" points="267.21,-94.69 227.91,-94.69 215.76,-132.07 203.62,-94.69 164.32,-94.69 196.11,-71.59 183.97,-34.21 215.76,-57.31 247.56,-34.21 235.41,-71.59 267.21,-94.69"/>
<text text-anchor="middle" x="215.76" y="-79.44" font-family="Times,serif" font-size="14.00">F</text>
</g>
<!-- D&#45;&#45;F -->
<g id="edge10" class="edge">
<title>D&#45;&#45;F</title>
<path fill="none" stroke="red" d="M177.88,-101.78C182.53,-99.5 187.46,-97.07 192.18,-94.75"/>
<text text-anchor="middle" x="178.53" y="-104.26" font-family="Times,serif" font-size="20.00">3</text>
</g>
<!-- E&#45;&#45;F -->
<g id="edge12" class="edge">
<title>E&#45;&#45;F</title>
<path fill="none" stroke="red" d="M165.02,-60.37C174.32,-64.54 184.71,-69.21 193.66,-73.22"/>
<text text-anchor="middle" x="172.84" y="-72.79" font-family="Times,serif" font-size="20.00">1</text>
</g>
<!-- F&#45;&#45;G -->
<g id="edge13" class="edge">
<title>F&#45;&#45;G</title>
<path fill="none" stroke="red" d="M210.53,-116.35C209.59,-122.32 208.62,-128.51 207.69,-134.37"/>
<text text-anchor="middle" x="215.61" y="-109.36" font-family="Times,serif" font-size="20.00">6</text>
</g>
</g>
</svg>
